#!OML:ASF I:\Actors\actors\Patient Classification 2\Patient 1\Session 1\actor1.ASF
:FULLY-SPECIFIED
:DEGREES
151
root -0.0984433 18.3042 5.66226 -3.31 -23.4562 0.941234
lowerback 18.6134 -8.85052 3.74344
upperback 1.22828 -10.7996 1.20319
thorax -9.4181 -5.27786 2.10451
lowerneck -15.3886 -4.89908 -5.34672
upperneck 28.8643 -6.42441 1.80305
head 12.3265 -3.32494 0.597121
rclavicle -7.70291e-014 3.81667e-014
rhumerus -49.3484 -6.14209 -68.3201
rradius 76.8762
rwrist -24.6764
rhand -10.628 -46.0622
rfingers 7.12502
rthumb 15.3788 -75.4702
lclavicle -7.70291e-014 3.81667e-014
lhumerus -12.4207 -25.871 101.283
lradius 61.8931
lwrist 23.3918
lhand -7.48839 -27.7194
lfingers 7.12502
lthumb 18.4011 1.43031
rfemur -5.15526 12.8218 11.1578
rtibia 20.8423
rfoot -15.735 0.108513
rtoes -11.868
lfemur -1.98102 17.0219 -14.7957
ltibia 31.3459
lfoot -26.0383 9.82805
ltoes -56.3686
152
root -0.0724729 18.2952 5.66746 -3.24292 -24.1457 1.13795
lowerback 18.3322 -8.92218 4.06553
upperback 1.62796 -10.8565 1.13406
thorax -8.89759 -5.32894 1.79144
lowerneck -15.8333 -4.88266 -5.22988
upperneck 28.5205 -6.37052 1.77355
head 12.2721 -3.28087 0.56755
rclavicle -4.36332e-014 -5.96354e-015
rhumerus -48.4491 -6.74307 -68.4225
rradius 76.8348
rwrist -25.0802
rhand -10.5687 -45.7831
rfingers 7.12502
rthumb 15.436 -75.1868
lclavicle -4.36332e-014 -5.96354e-015
lhumerus -11.3454 -26.2244 101.054
lradius 61.1631
lwrist 23.3619
lhand -7.75478 -28.3324
lfingers 7.12502
lthumb 18.1448 0.841267
rfemur -5.80279 13.0507 10.8056
rtibia 21.3486
rfoot -15.579 0.519837
rtoes -12.2814
lfemur -2.1866 17.6319 -15.0735
ltibia 31.5935
lfoot -26.19 9.91716
ltoes -56.4374
153
root -0.0468922 18.2864 5.6721 -3.05088 -24.7732 1.25954
lowerback 18.4746 -9.05293 4.41212
upperback 1.64313 -10.9438 1.18271
thorax -9.01456 -5.37811 1.70856
lowerneck -16.038 -4.79201 -5.20123
upperneck 28.3669 -6.18978 1.6565
head 12.2399 -3.20855 0.543719
rclavicle -2.74323e-014 2.34566e-014
rhumerus -48.0006 -6.93673 -68.3771
rradius 76.8302
rwrist -25.5313
rhand -10.4523 -44.8058
rfingers 7.12502
rthumb 15.548 -74.2007
lclavicle -2.74323e-014 2.34566e-014
lhumerus -10.847 -26.1304 101.209
lradius 60.4577
lwrist 23.4188
lhand -7.75501 -28.8814
lfingers 7.12502
lthumb 18.1446 0.292255
rfemur -6.56157 13.2636 10.5055
rtibia 21.8781
rfoot -15.4821 0.901767
rtoes -12.4826
lfemur -2.53397 18.1518 -15.3274
ltibia 31.8462
lfoot -26.3769 10.0908
ltoes -56.5294
154
root -0.0251038 18.277 5.67686 -2.90073 -25.2199 1.42516
lowerback 18.6264 -9.20341 4.64153
upperback 1.6605 -11.0741 1.28944
thorax -9.10171 -5.44307 1.76144
lowerneck -16.2967 -4.71355 -5.25365
upperneck 28.1948 -5.9977 1.54105
head 12.2148 -3.13821 0.534897
rclavicle 4.1546e-014 3.97569e-015
rhumerus -47.47 -7.12577 -68.248
rradius 76.7578
rwrist -25.8702
rhand -9.85741 -43.3488
rfingers 7.12502
rthumb 16.121 -72.6983
lclavicle 4.1546e-014 3.97569e-015
lhumerus -10.3553 -26.2198 101.424
lradius 59.7167
lwrist 23.2707
lhand -8.55006 -29.532
lfingers 7.12502
lthumb 17.3795 -0.289033
rfemur -7.22557 13.3994 10.193
rtibia 22.4141
rfoot -15.5038 1.21863
rtoes -12.7228
lfemur -2.88433 18.4951 -15.6142
ltibia 32.1145
lfoot -26.5763 10.1843
ltoes -56.4884
155
root -0.00340074 18.2666 5.6805 -2.82922 -25.7361 1.64708
lowerback 18.8896 -9.30599 4.78115
upperback 1.6632 -11.1499 1.407
thorax -9.24497 -5.47692 1.87747
lowerneck -16.5522 -4.62511 -5.24879
upperneck 28.0328 -5.76561 1.28355
head 12.1848 -3.06257 0.469783
rclavicle -1.14003e-013 4.21423e-014
rhumerus -46.9221 -7.32227 -68.0794
rradius 76.6239
rwrist -26.1564
rhand -9.70703 -42.2602
rfingers 7.12502
rthumb 16.2658 -71.5979
lclavicle -1.14003e-013 4.21423e-014
lhumerus -10.0005 -26.6526 101.721
lradius 58.9412
lwrist 22.2375
lhand -11.1689 -30.4644
lfingers 7.12502
lthumb 14.8578 -1.01715
rfemur -7.84944 13.5066 9.83783
rtibia 22.9337
rfoot -15.4443 1.56979
rtoes -13.2017
lfemur -3.16532 18.9221 -15.9225
ltibia 32.3902
lfoot -26.7779 10.1984
ltoes -56.3542
156
root 0.0194212 18.2565 5.6847 -2.72302 -26.3009 1.80363
lowerback 19.101 -9.39069 5.03391
upperback 1.70182 -11.1851 1.48553
thorax -9.34901 -5.49707 1.87083
lowerneck -16.7744 -4.518 -5.12155
upperneck 27.8352 -5.54049 1.01173
head 12.1298 -2.97917 0.379399
rclavicle 7.73272e-014 -6.36111e-015
rhumerus -46.3836 -7.60463 -67.9888
rradius 76.5085
rwrist -26.5189
rhand -10.2464 -43.2314
rfingers 7.12502
rthumb 15.7464 -72.6109
lclavicle 7.73272e-014 -6.36111e-015
lhumerus -9.45367 -26.3011 101.856
lradius 58.6751
lwrist 23.6003
lhand -9.39712 -30.0191
lfingers 7.12502
lthumb 16.5641 -0.70608
rfemur -8.50903 13.6267 9.53538
rtibia 23.4428
rfoot -15.3358 1.92633
rtoes -13.727
lfemur -3.44899 19.4086 -16.1687
ltibia 32.6568
lfoot -26.9792 10.1763
ltoes -56.2508
157
root 0.0401755 18.2467 5.69207 -2.62242 -26.6857 1.96073
lowerback 19.1645 -9.52536 5.33938
upperback 1.79508 -11.2895 1.53071
thorax -9.3314 -5.55531 1.79181
lowerneck -16.9705 -4.43611 -5.05609
upperneck 27.6015 -5.37099 0.860986
head 12.0644 -2.91111 0.337213
rclavicle 5.96354e-016 -4.77083e-015
rhumerus -45.8175 -7.93399 -67.9681
rradius 76.4073
rwrist -26.9314
rhand -10.2655 -45.0898
rfingers 7.12502
rthumb 15.7279 -74.4707
lclavicle 5.96354e-016 -4.77083e-015
lhumerus -8.88203 -26.1779 101.974
lradius 58.1847
lwrist 24.0229
lhand -8.9351 -30.0212
lfingers 7.12502
lthumb 17.0089 -0.745828
rfemur -9.09665 13.7158 9.24026
rtibia 23.9463
rfoot -15.3038 2.24406
rtoes -13.7182
lfemur -3.73739 19.7503 -16.4259
ltibia 32.9168
lfoot -27.17 10.1519
ltoes -56.249
158
root 0.059179 18.2366 5.69843 -2.53319 -27.0448 2.20341
lowerback 19.2066 -9.65146 5.53441
upperback 1.86391 -11.4062 1.58473
thorax -9.30705 -5.61563 1.78209
lowerneck -17.1646 -4.35703 -5.06266
upperneck 27.3573 -5.18688 0.71895
head 11.9977 -2.84276 0.312902
rclavicle -6.54002e-014 3.65764e-014
rhumerus -45.2784 -8.15366 -67.9882
rradius 76.3092
rwrist -27.2243
rhand -10.2742 -46.2032
rfingers 7.12502
rthumb 15.7196 -75.5848
lclavicle -6.54002e-014 3.65764e-014
lhumerus -8.36122 -26.0763 102.113
lradius 57.5971
lwrist 23.9074
lhand -9.18446 -30.4809
lfingers 7.12502
lthumb 16.7689 -1.18503
rfemur -9.70401 13.7797 8.85412
rtibia 24.4397
rfoot -15.2452 2.61956
rtoes -13.3186
lfemur -4.06468 20.1198 -16.7721
ltibia 33.1829
lfoot -27.3072 10.1593
ltoes -56.3221
159
root 0.0772841 18.2262 5.70243 -2.46538 -27.4272 2.4549
lowerback 19.3925 -9.75301 5.66054
upperback 1.87733 -11.4879 1.67892
thorax -9.39891 -5.6534 1.87094
lowerneck -17.386 -4.26121 -5.0465
upperneck 27.1633 -4.96776 0.512073
head 11.953 -2.7652 0.265079
rclavicle -5.9039e-014 1.59028e-014
rhumerus -44.8432 -8.28561 -67.9737
rradius 76.2645
rwrist -27.4327
rhand -10.7792 -46.5462
rfingers 7.12502
rthumb 15.2332 -75.9653
lclavicle -5.9039e-014 1.59028e-014
lhumerus -7.99386 -25.9523 102.326
lradius 57.1249
lwrist 23.7794
lhand -9.57305 -30.9266
lfingers 7.12502
lthumb 16.3948 -1.59947
rfemur -10.3027 13.8843 8.47192
rtibia 24.9252
rfoot -15.1998 2.94209
rtoes -13.2551
lfemur -4.37949 20.5781 -17.1037
ltibia 33.454
lfoot -27.3988 10.1191
ltoes -56.3986
160
root 0.0960046 18.214 5.70613 -2.42168 -27.7994 2.63933
lowerback 19.6557 -9.83221 5.86794
upperback 1.90218 -11.5145 1.78038
thorax -9.53214 -5.6663 1.92212
lowerneck -17.654 -4.20608 -4.97815
upperneck 27.0263 -4.7975 0.220683
head 11.9383 -2.71517 0.167929
rclavicle 1.32589e-013 -3.02153e-014
rhumerus -44.4467 -8.49638 -67.9054
rradius 76.232
rwrist -27.5823
rhand -10.9055 -46.5173
rfingers 7.12502
rthumb 15.1115 -75.9457
lclavicle 1.32589e-013 -3.02153e-014
lhumerus -7.63225 -25.9758 102.576
lradius 56.6752
lwrist 23.8521
lhand -10.042 -31.2884
lfingers 7.12502
lthumb 15.9432 -1.92455
rfemur -10.8278 14.0937 8.17813
rtibia 25.3953
rfoot -15.2378 3.1361
rtoes -13.2428
lfemur -4.6405 21.0326 -17.3455
ltibia 33.7303
lfoot -27.4987 10.0049
ltoes -56.387
161
root 0.115268 18.2011 5.70999 -2.34286 -28.1734 2.77636
lowerback 19.7951 -9.88396 6.169
upperback 2.01225 -11.4995 1.85653
thorax -9.52574 -5.66589 1.85501
lowerneck -17.8824 -4.17571 -4.86297
upperneck 26.7289 -4.66878 -0.088794
head 11.853 -2.67917 0.0533086
rclavicle 1.03169e-013 -2.38542e-014
rhumerus -43.9165 -8.79982 -67.9004
rradius 76.1219
rwrist -27.7597
rhand -11.0563 -46.4886
rfingers 7.12502
rthumb 14.9662 -75.9279
lclavicle 1.03169e-013 -2.38542e-014
lhumerus -7.1172 -26.0585 102.77
lradius 56.1718
lwrist 24.0878
lhand -10.401 -31.6503
lfingers 7.12502
lthumb 15.5975 -2.25914
rfemur -11.353 14.3354 7.9233
rtibia 25.8376
rfoot -15.3006 3.31105
rtoes -13.1098
lfemur -4.93392 21.414 -17.5659
ltibia 34.0248
lfoot -27.6515 9.93786
ltoes -56.2986
